<?xml version="1.0" encoding="iso-8859-1"?>
<!-- Generator: Adobe Illustrator 19.0.0, SVG Export Plug-In . SVG Version: 6.00 Build 0)  -->
<svg version="1.1" id="Capa_1" xmlns="http://www.w3.org/2000/svg" xmlns:xlink="http://www.w3.org/1999/xlink" x="0px" y="0px"
	 viewBox="0 0 512 512" style="enable-background:new 0 0 512 512;" xml:space="preserve">
<path style="fill:#FF525D;" d="M512,256c0,18.568-1.975,36.665-5.736,54.105c-9.132,42.486-28.818,81.063-56.184,112.839
	c-15.276,17.742-32.946,33.374-52.506,46.383C357.021,496.285,308.349,512,256,512c-52.36,0-101.042-15.715-141.594-42.695
	c-23.489-15.621-44.251-35.025-61.409-57.334c-24.921-32.371-42.256-70.875-49.371-112.849C1.233,285.1,0,270.691,0,256
	C0,114.615,114.615,0,256,0S512,114.615,512,256z"/>
<g>
	<path style="fill:#FF6E7C;" d="M506.263,310.105c-9.132,42.486-28.818,81.063-56.184,112.839H348.014
		c-10.386,0-18.798-8.422-18.798-18.808c0-5.193,2.1-9.895,5.507-13.302c3.396-3.396,8.098-5.507,13.291-5.507h51.273
		c10.386,0,18.808-8.411,18.808-18.798c0-5.193-2.1-9.895-5.507-13.302s-8.108-5.507-13.302-5.507h-5.235
		c-10.386,0-18.798-8.422-18.798-18.808c0-5.193,2.1-9.895,5.507-13.302c3.396-3.406,8.098-5.507,13.291-5.507H506.263z"/>
	<path style="fill:#FF6E7C;" d="M187.58,355.547c0,5.193-2.111,9.895-5.507,13.302c-3.406,3.396-8.108,5.507-13.302,5.507h-44.68
		c-10.386,0-18.808,8.422-18.808,18.808s-8.422,18.808-18.808,18.808H52.997c-24.921-32.371-42.256-70.875-49.371-112.849h122.305
		c10.386,0,18.808,8.422,18.808,18.808c0,5.193,2.1,9.895,5.507,13.302c3.396,3.396,8.098,5.507,13.291,5.507h5.235
		C179.158,336.739,187.58,345.161,187.58,355.547z"/>
</g>
<rect x="232.49" y="326.29" style="fill:#FFD15C;" width="47.02" height="142.106"/>
<rect x="232.49" y="326.29" style="fill:#EDBB4C;" width="17.816" height="142.106"/>
<path style="fill:#FFDC8D;" d="M268.016,452.723L268.016,452.723c-3.174,0-5.747-2.573-5.747-5.747v-85.682
	c0-3.174,2.573-5.747,5.747-5.747l0,0c3.174,0,5.747,2.573,5.747,5.747v85.682C273.763,450.15,271.191,452.723,268.016,452.723z"/>
<g>
	<path style="fill:#FFD15C;" d="M397.573,469.305v0.021C357.021,496.285,308.349,512,256,512
		c-52.36,0-101.042-15.715-141.594-42.695l0,0c0-7.427,6.021-13.448,13.448-13.448h256.272
		C391.552,455.858,397.573,461.878,397.573,469.305z"/>
	<path style="fill:#FFD15C;" d="M400.787,257.279H111.202c-36.836,0-66.805-29.969-66.805-66.804V71.81
		c0-6.636,5.38-12.016,12.016-12.016h399.161c6.636,0,12.016,5.38,12.016,12.016v118.665
		C467.592,227.311,437.623,257.279,400.787,257.279z M68.43,83.826v106.649c0,23.584,19.187,42.772,42.772,42.772h289.585
		c23.584,0,42.772-19.187,42.772-42.772V83.826H68.43z"/>
	<path style="fill:#FFD15C;" d="M285.967,344.528h-59.944c-17.29,0-31.306-14.016-31.306-31.306v-37.657h122.557v37.657
		C317.274,330.512,303.257,344.528,285.967,344.528z"/>
</g>
<path style="fill:#EDBB4C;" d="M230.242,313.222v-37.657h-35.527v37.657c0,17.29,14.016,31.306,31.306,31.306h35.527
	C244.26,344.528,230.242,330.512,230.242,313.222z"/>
<path style="fill:#FFD15C;" d="M370.406,0.004v230.41c0,38.076-30.856,68.932-68.932,68.932h-90.958
	c-38.066,0-68.932-30.856-68.932-68.932V0.004H370.406z"/>
<g>
	<path style="fill:#EDBB4C;" d="M192.784,230.415V0.004h-51.2v230.41c0,38.076,30.866,68.932,68.932,68.932h51.2
		C223.65,299.347,192.784,268.491,192.784,230.415z"/>
	<rect x="141.584" y="30.511" style="fill:#EDBB4C;" width="228.822" height="40.249"/>
</g>
<path style="fill:#FFD15C;" d="M369.843,57.989H142.151c-9.401,0-17.021-7.62-17.021-17.021V17.021C125.13,7.62,132.75,0,142.151,0
	h227.692c9.401,0,17.021,7.62,17.021,17.021v23.947C386.864,50.368,379.243,57.989,369.843,57.989z"/>
<g>
	<path style="fill:#FFDC8D;" d="M361.012,33.148h-38.661c-6.059,0-10.971-4.912-10.971-10.971l0,0
		c0-6.059,4.912-10.971,10.971-10.971h38.661c6.059,0,10.971,4.912,10.971,10.971l0,0C371.984,28.236,367.072,33.148,361.012,33.148
		z"/>
	<path style="fill:#FFDC8D;" d="M352.249,486.946h-38.661c-6.059,0-10.971-4.912-10.971-10.971l0,0
		c0-6.059,4.912-10.971,10.971-10.971h38.661c6.059,0,10.971,4.912,10.971,10.971l0,0
		C363.22,482.034,358.308,486.946,352.249,486.946z"/>
	<path style="fill:#FFDC8D;" d="M335.412,254.667h-5.224c-6.925,0-12.539-5.614-12.539-12.539V91.663
		c0-6.925,5.614-12.539,12.539-12.539h5.224c6.925,0,12.539,5.614,12.539,12.539v150.465
		C347.951,249.054,342.337,254.667,335.412,254.667z"/>
</g>
<g>
</g>
<g>
</g>
<g>
</g>
<g>
</g>
<g>
</g>
<g>
</g>
<g>
</g>
<g>
</g>
<g>
</g>
<g>
</g>
<g>
</g>
<g>
</g>
<g>
</g>
<g>
</g>
<g>
</g>
</svg>
